<svg width="16" height="16" viewBox="0 0 16 16" fill="none" xmlns="http://www.w3.org/2000/svg">
<path fill-rule="evenodd" clip-rule="evenodd" d="M8.00003 2.95801C8.09949 2.95801 8.19487 2.99752 8.2652 3.06784L12.9319 7.73451C13.0783 7.88096 13.0783 8.11839 12.9319 8.26484C12.7854 8.41129 12.548 8.41129 12.4015 8.26484L8.37503 4.23834V12.6663C8.37503 12.8734 8.20714 13.0413 8.00003 13.0413C7.79292 13.0413 7.62503 12.8734 7.62503 12.6663V4.23834L3.59854 8.26484C3.45209 8.41129 3.21466 8.41129 3.06821 8.26484C2.92176 8.11839 2.92176 7.88096 3.06821 7.73451L7.73487 3.06784C7.80519 2.99752 7.90057 2.95801 8.00003 2.95801Z" fill="black"/>
</svg>
