<svg width="123" height="32" viewBox="0 0 123 32" fill="none" xmlns="http://www.w3.org/2000/svg">
<path d="M54.2013 5.85704H46.4002V12.9259H52.9347C53.8863 12.9259 54.3622 13.4106 54.3622 14.38V17.3489C54.3622 18.3184 53.8863 18.8031 52.9347 18.8031H46.4002V30.2748C46.4002 31.2443 45.9176 31.729 44.9525 31.729H41.997C41.0319 31.729 40.5493 31.2443 40.5493 30.2748V5.59448C40.5493 4.05953 41.0922 2.74675 42.1779 1.65613C43.2636 0.552043 44.5772 0 46.1187 0H54.2013C55.1664 0 55.649 0.48472 55.649 1.45416V4.42307C55.649 5.37905 55.1664 5.85704 54.2013 5.85704Z" fill="white"/>
<path d="M72.2566 31.729H64.0332C62.5052 31.729 61.1983 31.1837 60.1125 30.093C59.0268 29.0024 58.4839 27.6896 58.4839 26.1547V1.45416C58.4839 0.48472 58.9665 0 59.9316 0H72.136C73.1011 0 73.5836 0.48472 73.5836 1.45416V4.42307C73.5836 5.37905 73.1011 5.85704 72.136 5.85704H64.3147V12.9259H70.8492C71.8143 12.9259 72.2968 13.4106 72.2968 14.38V17.3489C72.2968 18.3184 71.8143 18.8031 70.8492 18.8031H64.3147V25.8719H72.2566C73.2217 25.8719 73.7042 26.3567 73.7042 27.3261V30.2748C73.7042 31.2443 73.2217 31.729 72.2566 31.729Z" fill="white"/>
<path d="M100.244 5.85704H92.4431V12.9259H98.9776C99.9293 12.9259 100.405 13.4106 100.405 14.38V17.3489C100.405 18.3184 99.9293 18.8031 98.9776 18.8031H92.4431V30.2748C92.4431 31.2443 91.9606 31.729 90.9955 31.729H88.0399C87.0748 31.729 86.5922 31.2443 86.5922 30.2748V5.59448C86.5922 4.05953 87.1351 2.74675 88.2208 1.65613C89.3066 0.552043 90.6202 0 92.1616 0H100.244C101.209 0 101.692 0.48472 101.692 1.45416V4.42307C101.692 5.37905 101.209 5.85704 100.244 5.85704Z" fill="white"/>
<path d="M120.21 30.3556C119.177 31.2712 117.964 31.729 116.57 31.729H110.358C108.816 31.729 107.456 31.15 106.276 29.9921C105.11 28.8207 104.527 27.454 104.527 25.8921V5.83684C104.527 4.28843 105.117 2.92852 106.296 1.75711C107.476 0.585704 108.836 0 110.378 0H116.55C118.092 0 119.459 0.592436 120.652 1.77731C121.858 2.96218 122.461 4.32882 122.461 5.87723V6.80628C122.461 7.76226 121.979 8.24024 121.014 8.24024H118.058C117.107 8.24024 116.631 7.76226 116.631 6.80628V5.85704H110.358V25.8719H116.631V24.7611C116.631 23.7917 117.107 23.307 118.058 23.307H121.014C121.979 23.307 122.461 23.7917 122.461 24.7611V25.8719C122.461 27.5685 121.711 29.063 120.21 30.3556Z" fill="white"/>
<ellipse cx="15.7933" cy="16.1355" rx="15.7933" ry="15.8645" fill="white"/>
<path fill-rule="evenodd" clip-rule="evenodd" d="M11.7398 4.57887C14.3474 3.66878 17.184 3.66878 19.7916 4.57888C22.1834 5.41927 24.2558 6.98573 25.7222 9.06124L25.7222 9.06129C27.189 11.1367 27.977 13.619 27.9773 16.1644C27.9773 16.1644 27.9773 16.1644 27.9773 16.1644V16.4413C27.9264 18.8454 27.1694 21.1808 25.8015 23.1545L25.801 23.1551L25.8006 23.1557C24.3317 25.2872 22.2283 26.8963 19.7925 27.7526C17.3566 28.6087 14.7133 28.6679 12.2418 27.9216C9.77045 27.1753 7.59793 25.6619 6.03587 23.5983C4.51796 21.593 3.65236 19.1687 3.55373 16.6553L3.55386 16.1645C3.55455 13.6191 4.34249 11.1367 5.80916 9.06128C7.27563 6.98578 9.3482 5.41935 11.7398 4.57887ZM20.1474 3.55208C17.3094 2.56142 14.222 2.56142 11.384 3.55208L11.3834 3.55226L11.3829 3.55245C8.77931 4.4673 6.52302 6.1725 4.92656 8.43197C3.43225 10.5465 2.58525 13.0489 2.48219 15.6324L2.46484 15.6328V16.453L2.46497 16.4589C2.5253 19.2802 3.47377 22.0098 5.17431 24.2563C6.87479 26.5028 9.23983 28.1503 11.9302 28.9628C14.6207 29.7753 17.4982 29.7108 20.15 28.7788C22.8012 27.8468 25.0909 26.0955 26.69 23.7753C28.1808 21.6242 29.0052 19.0787 29.0596 16.4584L29.0597 16.4527V16.1643C29.0593 13.3935 28.2015 10.6913 26.6048 8.43198M20.1474 3.55208L20.1479 3.55226ZM20.1479 3.55226L20.1485 3.55244ZM20.1485 3.55244C22.7522 4.46722 25.0084 6.17248 26.6048 8.43192Z" fill="black"/>
<path d="M15.7615 11.6348L20.0511 14.7641L18.4132 19.8305H13.1117L11.4738 14.7641L15.7615 11.6348Z" fill="black"/>
<path d="M11.4738 4.31901L15.7616 7.44847L20.0513 4.31901L19.97 4.06541H19.9702C17.2473 3.11491 14.285 3.11491 11.5621 4.06541L11.4738 4.31901Z" fill="black"/>
<path d="M24.0092 13.4718L28.3042 16.6012L28.5188 16.4471V16.1644C28.5231 13.3616 27.6082 10.6354 25.9159 8.40723H25.6525L24.0092 13.4718Z" fill="black"/>
<path d="M19.2234 28.2796L19.438 28.4354C22.2015 27.5995 24.6013 25.8474 26.2458 23.4649L26.1645 23.2148H20.863L19.2234 28.2796Z" fill="black"/>
<path d="M5.27908 23.4653C6.92462 25.8463 9.32407 27.5976 12.0869 28.4339L12.3015 28.2781L10.6617 23.2046H5.36021L5.27908 23.4653Z" fill="black"/>
<path d="M3.00636 16.1642V16.4468L3.21746 16.6009L7.51062 13.4715L5.87268 8.39795H5.60927C3.91439 10.6284 2.99931 13.3584 3.00638 16.1642L3.00636 16.1642Z" fill="black"/>
<path fill-rule="evenodd" clip-rule="evenodd" d="M15.2203 6.90479V12.1778H16.3026V6.90479H15.2203Z" fill="black"/>
<path fill-rule="evenodd" clip-rule="evenodd" d="M24.362 12.7871L19.3693 14.4148L19.7034 15.4489L24.6961 13.8212L24.362 12.7871Z" fill="black"/>
<path fill-rule="evenodd" clip-rule="evenodd" d="M17.6572 19.7106L20.7434 23.9747L21.6188 23.3354L18.5327 19.0713L17.6572 19.7106Z" fill="black"/>
<path fill-rule="evenodd" clip-rule="evenodd" d="M12.9921 19.0713L9.90589 23.3354L10.7813 23.9747L13.8675 19.7106L12.9921 19.0713Z" fill="black"/>
<path fill-rule="evenodd" clip-rule="evenodd" d="M6.82854 13.8212L11.8212 15.4489L12.1553 14.4148L7.16266 12.7871L6.82854 13.8212Z" fill="black"/>
</svg>
